<svg xmlns="http://www.w3.org/2000/svg" width="640" height="420" viewBox="0 0 640 420" role="img" aria-labelledby="title desc">
  <title>Common zero obstruction</title>
  <desc>Two different curves pass through the same zero of the dependent variable.</desc>
  <rect width="640" height="420" fill="#fbfaf7"/>
  <line x1="60" y1="330" x2="590" y2="330" stroke="#454545" stroke-width="2"/>
  <line x1="90" y1="370" x2="90" y2="45" stroke="#454545" stroke-width="2"/>
  <path d="M590 330 l-12 -6 l0 12 z" fill="#454545"/>
  <path d="M90 45 l-6 12 l12 0 z" fill="#454545"/>
  
  <path class="u" d="M90 280 C180 238, 250 330, 320 330 C405 330, 480 255, 570 285"/>
  <path class="v" d="M90 200 C180 240, 250 330, 320 330 C398 330, 472 365, 570 318"/>
  <circle class="mark" cx="320" cy="330" r="6"/>
  <line class="guide" x1="320" y1="68" x2="320" y2="372"/>
  <text x="500" y="288">u</text>
  <text x="505" y="330">v</text>
  <text x="332" y="356">common zero</text>

  <style>
    .u { fill: none; stroke: #1f78b4; stroke-width: 5; stroke-linecap: round; }
    .v { fill: none; stroke: #d95f02; stroke-width: 5; stroke-linecap: round; }
    .w { fill: none; stroke: #1f78b4; stroke-width: 3; stroke-dasharray: 10 8; stroke-linecap: round; }
    .mark { fill: #222; }
    .guide { stroke: #777; stroke-width: 2; stroke-dasharray: 6 7; fill: none; }
    text { font-family: Arial, sans-serif; font-size: 22px; fill: #222; }
  </style>
</svg>
