<svg xmlns="http://www.w3.org/2000/svg" width="720" height="520" viewBox="0 0 720 520">
  <defs>
    <marker id="arrow" markerWidth="10" markerHeight="10" refX="7" refY="3" orient="auto" markerUnits="strokeWidth">
      <path d="M0,0 L0,6 L8,3 z" fill="#1f2937"/>
    </marker>
  </defs>
  <rect width="720" height="520" fill="#ffffff"/>
  <line x1="70" y1="260" x2="650" y2="260" stroke="#9ca3af" stroke-width="2"/>
  <line x1="360" y1="470" x2="360" y2="50" stroke="#9ca3af" stroke-width="2"/>
  <path d="M635,260 L617,252 L617,268 z" fill="#9ca3af"/>
  <path d="M360,55 L352,73 L368,73 z" fill="#9ca3af"/>
  <text x="655" y="275" font-family="Arial, sans-serif" font-size="22" fill="#374151">x</text>
  <text x="372" y="48" font-family="Arial, sans-serif" font-size="22" fill="#374151">y</text>
  <circle cx="360" cy="260" r="5" fill="#111827"/>
  <path d="M565,120 C650,190 610,340 488,385 C360,432 210,355 205,235 C200,115 350,55 465,120 C558,172 546,300 450,335 C360,368 260,318 268,237 C276,156 378,125 440,176 C498,224 468,300 405,313 C347,325 302,285 311,239 C320,192 379,183 409,213 C436,240 422,279 388,286 C365,291 342,278 341,254"
        fill="none" stroke="#111827" stroke-width="5" stroke-linecap="round" marker-end="url(#arrow)"/>
  <path d="M150,395 C95,315 105,190 205,118 C310,42 498,55 570,178"
        fill="none" stroke="#2563eb" stroke-width="4" stroke-linecap="round" marker-end="url(#arrow)"/>
  <path d="M590,415 C515,470 380,475 280,410 C180,345 140,210 205,120"
        fill="none" stroke="#2563eb" stroke-width="4" stroke-linecap="round" marker-end="url(#arrow)"/>
  <path d="M180,260 C220,180 320,130 415,162 C500,190 530,285 475,345"
        fill="none" stroke="#0f766e" stroke-width="4" stroke-linecap="round" marker-end="url(#arrow)"/>
  <path d="M500,260 C470,325 390,360 315,330 C245,302 225,220 275,170"
        fill="none" stroke="#0f766e" stroke-width="4" stroke-linecap="round" marker-end="url(#arrow)"/>
  <text x="92" y="85" font-family="Arial, sans-serif" font-size="24" fill="#111827">trajectories approach the origin</text>
</svg>
