<svg xmlns="http://www.w3.org/2000/svg" width="720" height="520" viewBox="0 0 720 520">
  <defs>
    <marker id="arrow" markerWidth="10" markerHeight="10" refX="7" refY="3" orient="auto" markerUnits="strokeWidth">
      <path d="M0,0 L0,6 L8,3 z" fill="#1f2937"/>
    </marker>
  </defs>
  <rect width="720" height="520" fill="#ffffff"/>
  <line x1="70" y1="260" x2="650" y2="260" stroke="#9ca3af" stroke-width="2"/>
  <line x1="360" y1="470" x2="360" y2="50" stroke="#9ca3af" stroke-width="2"/>
  <path d="M635,260 L617,252 L617,268 z" fill="#9ca3af"/>
  <path d="M360,55 L352,73 L368,73 z" fill="#9ca3af"/>
  <text x="655" y="275" font-family="Arial, sans-serif" font-size="22" fill="#374151">x</text>
  <text x="372" y="48" font-family="Arial, sans-serif" font-size="22" fill="#374151">y</text>
  <circle cx="360" cy="260" r="5" fill="#111827"/>
  <ellipse cx="360" cy="260" rx="70" ry="48" fill="none" stroke="#111827" stroke-width="4"/>
  <ellipse cx="360" cy="260" rx="128" ry="88" fill="none" stroke="#111827" stroke-width="4"/>
  <ellipse cx="360" cy="260" rx="190" ry="130" fill="none" stroke="#111827" stroke-width="4"/>
  <ellipse cx="360" cy="260" rx="255" ry="175" fill="none" stroke="#111827" stroke-width="4"/>
  <path d="M428,257 C427,234 410,219 389,213" fill="none" stroke="#111827" stroke-width="4" marker-end="url(#arrow)"/>
  <path d="M486,254 C485,214 455,188 417,177" fill="none" stroke="#111827" stroke-width="4" marker-end="url(#arrow)"/>
  <path d="M548,254 C546,194 501,154 444,139" fill="none" stroke="#111827" stroke-width="4" marker-end="url(#arrow)"/>
  <path d="M613,254 C610,175 550,121 475,95" fill="none" stroke="#111827" stroke-width="4" marker-end="url(#arrow)"/>
  <text x="108" y="88" font-family="Arial, sans-serif" font-size="24" fill="#111827">nearby trajectories stay on closed curves</text>
</svg>
